<?xml version="1.0" standalone="no"?>
<!DOCTYPE svg PUBLIC "-//W3C//DTD SVG 1.1//EN" "http://www.w3.org/Graphics/SVG/1.1/DTD/svg11.dtd">
<svg xmlns="http://www.w3.org/2000/svg">
<defs >
<font id="RedHatDisplay" horiz-adv-x="579" ><font-face
    font-family="Red Hat Display Black"
    units-per-em="1000"
    panose-1="2 1 10 3 4 2 1 6 3 3"
    ascent="1018"
    descent="-305"
    alphabetic="0" />
<glyph unicode=" " glyph-name="space" horiz-adv-x="195" />
<glyph unicode="!" glyph-name="exclam" horiz-adv-x="258" d="M67 216L47 745H211L191 216H67ZM129 -11Q91 -11 64 16T36 82Q36 120 63 147T129 175Q167 175 194 148T222 82Q222 44 195 17T129 -11Z" />
<glyph unicode="&quot;" glyph-name="quotedbl" horiz-adv-x="482" d="M79 396L60 706H216L197 396H79ZM286 396L267 706H423L404 396H286Z" />
<glyph unicode="#" glyph-name="numbersign" horiz-adv-x="757" d="M67 0L120 184H29V298H152L182 402H79V516H214L267 700H412L359 516H492L545 700H689L636 516H728V402H604L574 298H678V184H542L489 0H345L398 184H265L212 0H67ZM297 298H430L460 402H327L297 298Z" />
<glyph unicode="$" glyph-name="dollar" horiz-adv-x="614" d="M258 -75V19Q183 25 117 52T0 125L80 241Q118 207 163 184T258 153V281L196 293Q100 309 57 352T14 477Q14 571 79 626T258 686V759H331V683Q393 677 454 657T569 606L503 482Q456 507 414 523T331
547V417L392 407Q494 389 542 347T590 229Q590 136 522 80T331 18V-75H258ZM257 424H258V553Q215 551 190 535T164 490Q164 458 182 445T257 424ZM434 213Q434 244 414 256T331 276V148Q378 151 406 168T434 213Z" />
<glyph unicode="%" glyph-name="percent" horiz-adv-x="814" d="M184 345Q109 345 65 394T20 526Q20 607 65 656T184 706Q258 706 303 657T348 526Q348 444 304 395T184 345ZM184 429Q217 429 235 454T254 526Q254 570 235 596T184 622Q152 622 134 596T115 526Q115
480 133 455T184 429ZM261 0H143L540 700H659L261 0ZM630 -5Q555 -5 511 44T466 176Q466 257 511 306T630 356Q704 356 749 307T794 176Q794 94 750 45T630 -5ZM630 79Q663 79 681 104T700 176Q700 220 681 246T630 272Q598 272 580 246T561 176Q561 130 579 105T630
79Z" />
<glyph unicode="&amp;" glyph-name="ampersand" horiz-adv-x="696" d="M664 91L568 -23Q546 -7 523 11T477 48Q435 20 385 5T277 -10Q164 -10 94 45T24 190Q24 254 53 297T152 380Q121 420 109 455T96 531Q96 609 154 660T302 712Q389 712 446 663T504 539Q504
494 481 457T410 391L359 359Q384 334 412 307T470 252Q486 282 498 318T520 398L658 375Q642 309 622 256T574 161Q597 142 620 125T664 91ZM240 534Q240 516 249 497T282 450L317 471Q339 485 349 500T359 534Q359 559 341 576T298 594Q273 594 257 577T240 534ZM173
203Q173 163 204 140T289 116Q313 116 334 121T375 137Q336 173 299 210T229 285Q198 266 186 247T173 203Z" />
<glyph unicode="&apos;" glyph-name="quotesingle" horiz-adv-x="275" d="M79 396L60 706H216L197 396H79Z" />
<glyph unicode="(" glyph-name="parenleft" horiz-adv-x="421" d="M48 247Q48 399 116 520T312 715L402 616Q302 553 250 459T198 247Q198 129 250 35T402 -122L312 -221Q185 -148 117 -27T48 247Z" />
<glyph unicode=")" glyph-name="parenright" horiz-adv-x="421" d="M373 245Q373 93 305 -28T109 -223L19 -124Q119 -61 171 33T223 245Q223 363 171 457T19 614L109 713Q236 640 304 519T373 245Z" />
<glyph unicode="*" glyph-name="asterisk" horiz-adv-x="487" d="M391 351L294 412L296 306H193L195 413L96 351L40 438L149 501L38 567L95 652L195 589L193 700H296L294 589L394 652L451 567L340 501L449 438L391 351Z" />
<glyph unicode="+" glyph-name="plus" horiz-adv-x="560" d="M343 123H218V297H43V421H218V591H343V421H517V297H343V123Z" />
<glyph unicode="," glyph-name="comma" horiz-adv-x="258" d="M63 127H230L111 -157H-10L63 127Z" />
<glyph unicode="-" glyph-name="hyphen" horiz-adv-x="463" d="M38 354H425V219H38V354Z" />
<glyph unicode="." glyph-name="period" horiz-adv-x="258" d="M129 175Q167 175 194 148T222 82Q222 44 195 17T129 -11Q91 -11 64 16T36 82Q36 120 63 147T129 175Z" />
<glyph unicode="/" glyph-name="slash" horiz-adv-x="531" d="M-72 -211L352 700H514L91 -211H-72Z" />
<glyph unicode="0" glyph-name="zero" horiz-adv-x="694" d="M347 -10Q276 -10 217 16T117 89T53 203T30 351Q30 432 53 498T117 612T217 685T347 711Q418 711 476 685T576 612T641 499T664 351Q664 270 641 203T577 89T477 16T347 -10ZM347 130Q421 130 463 189T506
351Q506 452 463 511T347 571Q274 571 231 512T188 351Q188 248 230 189T347 130Z" />
<glyph unicode="1" glyph-name="one" horiz-adv-x="373" d="M325 700V0H163V536L18 478V618L223 700H325Z" />
<glyph unicode="2" glyph-name="two" horiz-adv-x="586" d="M38 0V113L319 357Q357 391 374 419T392 478Q392 518 360 544T279 571Q230 571 188 551T94 485L4 593Q67 650 138 679T285 709Q344 709 393 693T476 648T530 578T550 488Q550 430 520 379T420 267L266
135H557V0H38Z" />
<glyph unicode="3" glyph-name="three" horiz-adv-x="629" d="M592 197Q592 152 570 114T510 49T418 6T301 -10Q216 -10 141 20T16 103L125 203Q165 161 203 145T299 129Q357 129 392 151T428 210Q428 241 398 259T313 277H247V406H296Q346 406 378 430T410 493Q410
527 379 548T298 570Q248 570 212 553T131 490L21 589Q72 646 148 678T304 711Q363 711 413 697T498 656T553 593T573 512Q573 461 547 419T475 350Q529 329 560 289T592 197Z" />
<glyph unicode="4" glyph-name="four" horiz-adv-x="694" d="M583 700V290H670V155H583V0H421V155H27V286L394 700H583ZM212 290H421V525L212 290Z" />
<glyph unicode="5" glyph-name="five" horiz-adv-x="617" d="M62 324L79 700H547V565H210L204 428Q234 438 264 442T329 447Q445 447 516 388T587 231Q587 177 566 133T505 56T412 7T291 -11Q215 -11 147 13T25 83L122 193Q167 156 207 141T296 125Q353 125 387
152T421 223Q421 266 384 292T288 319Q259 319 228 312T170 292L62 324Z" />
<glyph unicode="6" glyph-name="six" horiz-adv-x="645" d="M348 -11Q277 -11 218 14T116 86T51 197T28 340Q28 423 53 492T125 609T236 685T381 712Q442 712 503 691T603 635L509 521Q478 546 445 558T368 570Q287 570 242 517T190 361Q224 396 271 415T372 435Q426
435 471 419T548 375T599 308T617 221Q617 171 597 129T541 55T456 7T348 -11ZM346 309Q303 309 267 292T201 243Q217 189 254 157T340 125Q391 125 424 151T458 218Q458 258 427 283T346 309Z" />
<glyph unicode="7" glyph-name="seven" horiz-adv-x="618" d="M105 0L411 560H21V700H597V581L299 0H105Z" />
<glyph unicode="8" glyph-name="eight" horiz-adv-x="640" d="M320 -11Q257 -11 204 4T113 47T54 113T33 198Q33 249 63 291T143 357Q103 382 79 421T54 508Q54 551 74 588T130 653T214 695T319 711Q376 711 425 696T509 653T565 589T586 508Q586 461 562 422T497
357Q546 334 576 292T607 198Q607 152 586 113T528 47T437 5T320 -11ZM320 415Q366 415 396 439T427 497Q427 532 397 555T320 579Q274 579 244 556T213 497Q213 463 243 439T320 415ZM320 121Q374 121 409 145T444 208Q444 246 409 270T320 295Q266 295 231 271T196
208Q196 170 231 146T320 121Z" />
<glyph unicode="9" glyph-name="nine" horiz-adv-x="645" d="M297 712Q368 712 427 687T529 615T594 504T617 361Q617 278 592 209T520 92T409 16T264 -11Q203 -11 142 10T42 66L136 180Q167 155 200 143T277 131Q358 131 403 184T455 340Q421 305 374 286T273
266Q219 266 174 282T97 326T46 393T28 480Q28 530 48 572T104 646T189 694T297 712ZM299 392Q342 392 378 409T444 458Q428 512 391 544T305 576Q254 576 221 550T187 483Q187 443 218 418T299 392Z" />
<glyph unicode=":" glyph-name="colon" horiz-adv-x="258" d="M129 175Q167 175 194 148T222 82Q222 44 195 17T129 -11Q91 -11 64 16T36 82Q36 120 63 147T129 175ZM129 538Q167 538 194 511T222 445Q222 407 195 380T129 352Q91 352 64 379T36 445Q36 483 63
510T129 538Z" />
<glyph unicode=";" glyph-name="semicolon" horiz-adv-x="263" d="M142 538Q180 538 207 511T235 445Q235 407 208 380T142 352Q104 352 77 379T49 445Q49 483 76 510T142 538ZM314 127H481L362 -157H241L314 127Z" />
<glyph unicode="&lt;" glyph-name="less" horiz-adv-x="541" d="M400 43L44 347L401 652L483 559L228 349L485 138L400 43Z" />
<glyph unicode="=" glyph-name="equal" horiz-adv-x="560" d="M517 569V445H43V569H517ZM517 515V391H43V515H517Z" />
<glyph unicode="&gt;" glyph-name="greater" horiz-adv-x="541" d="M141 652L497 348L140 43L58 136L313 346L56 557L141 652Z" />
<glyph unicode="?" glyph-name="question" horiz-adv-x="534" d="M387 336L362 319Q333 300 322 278T311 218H176Q172 287 188 326T251 400L305 440Q330 459 342 476T355 509Q355 538 329 557T263 577Q220 577 185 554T134 493L3 542Q31 619 103 665T269 711Q321
711 366 697T443 656T494 595T513 519Q513 464 486 425T387 336ZM244 175Q282 175 309 148T337 82Q337 44 310 17T244 -11Q206 -11 179 16T151 82Q151 120 178 147T244 175Z" />
<glyph unicode="@" glyph-name="at" horiz-adv-x="792" d="M350 47Q289 47 247 92T204 203Q204 242 218 276T256 334T313 373T384 388Q409 388 432 380T474 357L478 375H581L537 167Q532 144 542 132T576 119Q621 119 649 161T677 272Q677 325 657 370T601 448T517
500T411 519Q348 519 294 496T200 432T138 335T115 214Q115 150 137 97T197 6T291 -53T412 -74Q458 -74 498 -65T575 -39L603 -101Q555 -123 509 -133T413 -144Q332 -144 264 -118T146 -45T68 66T40 207Q40 288 68 357T146 476T265 554T414 583Q485 583 547 560T655
495T727 399T754 279Q754 177 700 112T560 46Q523 46 496 56T454 87Q432 68 405 58T350 47ZM303 212Q303 177 323 154T375 131Q391 131 406 136T436 154Q436 161 437 168T439 182L456 269Q445 285 428 293T388 301Q354 301 329 275T303 212Z" />
<glyph unicode="A" glyph-name="A" horiz-adv-x="753" d="M-7 0L280 700H477L760 0H574L510 169H237L172 0H-7ZM289 306H459L375 530L289 306Z" />
<glyph unicode="B" glyph-name="B" horiz-adv-x="705" d="M58 700H405Q458 700 503 686T580 645T630 583T648 503Q648 460 627 423T568 359Q614 334 642 294T670 206Q670 114 601 57T422 0H58V700ZM394 559H230V421H394Q431 421 453 440T476 490Q476 521 454 540T394
559ZM409 141Q449 141 472 161T496 215Q496 249 473 269T409 289H230V141H409Z" />
<glyph unicode="C" glyph-name="C" horiz-adv-x="716" d="M415 149Q466 149 509 171T588 236L701 125Q652 64 573 27T409 -10Q330 -10 261 18T141 94T62 208T33 350Q33 426 62 492T141 607T261 683T409 711Q452 711 495 701T577 674T649 631T706 574L590 460Q553
506 508 529T409 553Q367 553 331 538T268 495T226 431T210 350Q210 307 225 271T268 207T333 165T415 149Z" />
<glyph unicode="D" glyph-name="D" horiz-adv-x="745" d="M58 0V700H342Q419 700 487 673T604 598T683 487T712 348Q712 276 683 212T605 101T487 27T342 0H58ZM338 548H230V152H338Q379 152 415 167T477 208T519 271T534 348Q534 390 519 426T478 490T415 532T338 548Z" />
<glyph unicode="E" glyph-name="E" horiz-adv-x="657" d="M58 0V700H610V551H230V425H481V281H230V149H614V0H58Z" />
<glyph unicode="F" glyph-name="F" horiz-adv-x="652" d="M58 0V700H614V551H230V420H486V276H230V0H58Z" />
<glyph unicode="G" glyph-name="G" horiz-adv-x="796" d="M763 354Q763 275 736 208T662 93T550 17T408 -11Q329 -11 261 17T142 93T62 208T33 350Q33 426 62 492T141 606T259 683T405 711Q494 711 573 674T702 574L581 465Q547 508 502 530T405 553Q363 553 327
538T266 495T225 431T210 350Q210 306 225 269T267 204T331 161T411 145Q471 145 516 175T577 255H388V404H763V354Z" />
<glyph unicode="H" glyph-name="H" horiz-adv-x="748" d="M58 0V700H230V431H518V700H690V0H518V274H230V0H58Z" />
<glyph unicode="I" glyph-name="I" horiz-adv-x="288" d="M58 0V700H230V0H58Z" />
<glyph unicode="J" glyph-name="J" horiz-adv-x="658" d="M610 275Q610 212 589 159T528 69T434 11T311 -10Q201 -10 125 46T17 206L176 265Q195 204 228 175T312 146Q368 146 403 183T438 280V700H610V275Z" />
<glyph unicode="K" glyph-name="K" horiz-adv-x="729" d="M58 0V700H230V394L513 700H721L397 371L739 0H511L230 321V0H58Z" />
<glyph unicode="L" glyph-name="L" horiz-adv-x="637" d="M58 0V700H230V152H599V0H58Z" />
<glyph unicode="M" glyph-name="M" horiz-adv-x="896" d="M446 50L216 479V0H58V700H275L448 370L621 700H838V0H676V477L446 50Z" />
<glyph unicode="N" glyph-name="N" horiz-adv-x="758" d="M58 700H220L538 294V700H700V0H548L220 422V0H58V700Z" />
<glyph unicode="O" glyph-name="O" horiz-adv-x="814" d="M781 350Q781 275 752 209T673 94T554 17T407 -11Q329 -11 260 17T141 93T62 208T33 350Q33 425 62 491T141 606T260 683T407 711Q485 711 554 683T673 607T752 492T781 350ZM604 350Q604 393 589 430T548
495T485 537T407 553Q365 553 329 538T267 495T225 431T210 350Q210 307 225 270T266 205T329 163T407 147Q449 147 485 162T547 205T589 269T604 350Z" />
<glyph unicode="P" glyph-name="P" horiz-adv-x="695" d="M58 0V700H427Q478 700 522 683T597 636T647 564T665 473Q665 426 647 385T597 315T522 268T427 251H230V0H58ZM407 553H230V393H407Q444 393 467 415T491 472Q491 508 468 530T407 553Z" />
<glyph unicode="Q" glyph-name="Q" horiz-adv-x="814" d="M781 350Q781 277 754 213T678 99L746 13L600 -41L554 17Q520 4 484 -3T407 -11Q329 -11 260 17T141 93T62 208T33 350Q33 425 62 491T141 606T260 683T407 711Q485 711 554 683T673 607T752 492T781 350ZM529
289L571 235Q587 259 595 288T604 350Q604 393 589 430T548 495T485 537T407 553Q365 553 329 538T267 495T225 431T210 350Q210 307 225 270T266 205T329 163T407 147Q417 147 428 148T449 151L383 235L529 289Z" />
<glyph unicode="R" glyph-name="R" horiz-adv-x="693" d="M58 0V700H416Q470 700 515 684T593 638T644 567T663 477Q663 411 627 359T532 280L685 0H493L361 255H230V0H58ZM400 553H230V395H400Q440 395 464 417T489 474Q489 509 465 531T400 553Z" />
<glyph unicode="S" glyph-name="S" horiz-adv-x="644" d="M0 107L96 232Q159 181 214 158T329 135Q388 135 421 153T455 203Q455 232 433 248T358 273L204 300Q119 315 73 365T27 492Q27 593 103 651T314 710Q392 710 471 683T608 610L517 483Q462 526 410 546T302
566Q250 566 220 550T189 505Q189 479 208 465T272 443L417 419Q518 403 570 352T623 220Q623 114 541 52T316 -10Q232 -10 149 21T0 107Z" />
<glyph unicode="T" glyph-name="T" horiz-adv-x="666" d="M18 548V700H648V548H419V0H247V548H18Z" />
<glyph unicode="U" glyph-name="U" horiz-adv-x="733" d="M685 305Q685 234 662 176T598 76T497 13T366 -10Q294 -10 235 12T134 75T71 174T48 305V700H220V305Q220 234 260 192T367 149Q433 149 473 191T513 305V700H685V305Z" />
<glyph unicode="V" glyph-name="V" horiz-adv-x="753" d="M276 0L-7 700H179L378 179L581 700H760L473 0H276Z" />
<glyph unicode="W" glyph-name="W" horiz-adv-x="969" d="M361 0H179L23 700H200L285 268L407 700H568L690 268L775 700H946L790 0H608L485 446L361 0Z" />
<glyph unicode="X" glyph-name="X" horiz-adv-x="724" d="M192 0H-5L260 361L7 700H212L362 489L512 700H709L460 361L730 0H525L358 234L192 0Z" />
<glyph unicode="Y" glyph-name="Y" horiz-adv-x="732" d="M280 0V261L-10 700H188L371 413L555 700H742L452 261V0H280Z" />
<glyph unicode="Z" glyph-name="Z" horiz-adv-x="622" d="M20 0V116L382 551H23V700H606V584L245 149H609V0H20Z" />
<glyph unicode="[" glyph-name="bracketleft" horiz-adv-x="412" d="M374 -215H56V700H374V574H209V-89H374V-215Z" />
<glyph unicode="\" glyph-name="backslash" horiz-adv-x="540" d="M612 -211H441L17 700H188L612 -211Z" />
<glyph unicode="]" glyph-name="bracketright" horiz-adv-x="412" d="M38 700H356V-215H38V-89H203V574H38V700Z" />
<glyph unicode="^" glyph-name="asciicircum" horiz-adv-x="560" d="M28 350L211 700H349L532 350H401L280 583L159 350H28Z" />
<glyph unicode="_" glyph-name="underscore" horiz-adv-x="499" d="M500 -80V-191H-1V-80H500Z" />
<glyph unicode="`" glyph-name="grave" horiz-adv-x="516" d="M294 747L381 611H251L112 747H294Z" />
<glyph unicode="a" glyph-name="a" horiz-adv-x="571" d="M219 -9Q135 -9 81 37T27 155Q27 230 84 272T245 314Q276 314 306 310T365 299V325Q365 365 340 384T264 404Q233 404 194 394T104 362L46 481Q110 510 171 524T293 539Q403 539 464 487T525 339V0H365V32Q333
10 298 1T219 -9ZM181 158Q181 133 203 119T264 105Q293 105 318 111T365 130V198Q342 204 318 207T269 210Q227 210 204 197T181 158Z" />
<glyph unicode="b" glyph-name="b" horiz-adv-x="648" d="M622 264Q622 207 601 158T542 72T455 14T347 -7Q310 -7 275 2T210 30V0H50V700L212 735V492Q243 514 278 525T352 536Q408 536 457 515T543 457T601 371T622 264ZM324 398Q290 398 262 388T212 356V171Q233
152 262 141T324 130Q383 130 423 168T463 264Q463 321 423 359T324 398Z" />
<glyph unicode="c" glyph-name="c" horiz-adv-x="539" d="M314 130Q347 130 375 144T429 187L525 87Q485 41 427 16T306 -10Q247 -10 196 11T107 69T48 156T26 264Q26 322 47 372T106 459T195 517T306 539Q371 539 430 513T530 441L431 338Q403 369 374 384T310
399Q258 399 223 360T187 264Q187 207 223 169T314 130Z" />
<glyph unicode="d" glyph-name="d" horiz-adv-x="648" d="M438 0V39Q407 17 371 5T296 -7Q240 -7 191 14T105 72T47 158T26 265Q26 322 47 371T106 457T193 515T301 536Q338 536 372 527T436 501V700L598 735V0H438ZM185 265Q185 208 225 170T324 131Q358 131
386 141T436 173V358Q415 377 386 388T324 399Q265 399 225 361T185 265Z" />
<glyph unicode="e" glyph-name="e" horiz-adv-x="595" d="M535 70Q485 28 433 9T314 -10Q254 -10 201 11T110 69T49 156T26 264Q26 321 47 371T106 459T193 517T302 538Q360 538 409 516T493 456T549 365T569 249V209H192Q208 172 242 149T322 125Q355 125 382
135T428 165L535 70ZM299 406Q259 406 230 384T189 322H410Q397 360 368 383T299 406Z" />
<glyph unicode="f" glyph-name="f" horiz-adv-x="453" d="M18 529H134V561Q134 654 189 704T349 754Q370 754 394 751T435 744V610Q416 614 402 615T371 617Q334 617 315 603T296 558V529H435V394H296V0H134V394H18V529Z" />
<glyph unicode="g" glyph-name="g" horiz-adv-x="644" d="M295 -2Q239 -2 190 19T104 76T47 162T26 268Q26 324 47 373T106 458T193 515T301 536Q337 536 371 527T434 501V529H594V5Q594 -102 523 -159T320 -217Q257 -217 199 -205T94 -171L148 -45Q191 -65 233
-75T317 -85Q374 -85 403 -62T432 7V40Q402 20 367 9T295 -2ZM185 268Q185 211 225 173T323 134Q356 134 383 144T432 173V360Q411 378 383 388T324 399Q266 399 226 361T185 268Z" />
<glyph unicode="h" glyph-name="h" horiz-adv-x="611" d="M50 0V700L212 735V493Q241 515 277 527T354 539Q447 539 506 479T565 326V0H403V304Q403 347 377 373T307 400Q276 400 252 389T212 358V0H50Z" />
<glyph unicode="i" glyph-name="i" horiz-adv-x="262" d="M131 578Q94 578 68 604T42 667Q42 704 68 730T131 756Q168 756 194 730T220 667Q220 630 194 604T131 578ZM212 529V0H50V529H212Z" />
<glyph unicode="j" glyph-name="j" horiz-adv-x="262" d="M131 578Q94 578 68 604T42 667Q42 704 68 730T131 756Q168 756 194 730T220 667Q220 630 194 604T131 578ZM27 -218Q6 -218 -17 -215T-54 -208V-86Q-43 -88 -32 -89T-7 -90Q22 -90 36 -79T50 -42V529H212V-51Q212
-130 164 -174T27 -218Z" />
<glyph unicode="k" glyph-name="k" horiz-adv-x="597" d="M50 0V700L212 735V313L423 529H604L369 290L620 0H415L212 237V0H50Z" />
<glyph unicode="l" glyph-name="l" horiz-adv-x="262" d="M212 735V0H50V700L212 735Z" />
<glyph unicode="m" glyph-name="m" horiz-adv-x="924" d="M50 0V529H212V495Q240 517 273 528T344 539Q393 539 433 520T501 466Q533 501 577 520T673 539Q763 539 820 479T878 326V0H716V304Q716 347 693 373T630 400Q603 400 581 390T543 360Q544 352 544 344T545
326V0H383V304Q383 347 360 373T297 400Q270 400 249 391T212 362V0H50Z" />
<glyph unicode="n" glyph-name="n" horiz-adv-x="611" d="M50 0V529H212V493Q241 515 277 527T354 539Q447 539 506 479T565 326V0H403V304Q403 347 377 373T307 400Q276 400 252 389T212 358V0H50Z" />
<glyph unicode="o" glyph-name="o" horiz-adv-x="626" d="M26 264Q26 321 48 371T109 459T200 517T313 539Q373 539 425 518T516 459T577 372T600 264Q600 207 578 157T517 69T426 11T313 -10Q253 -10 201 11T110 69T49 156T26 264ZM313 130Q367 130 404 169T442
264Q442 321 405 360T313 399Q259 399 222 360T184 264Q184 208 221 169T313 130Z" />
<glyph unicode="p" glyph-name="p" horiz-adv-x="648" d="M50 -211V529H210V490Q241 512 277 524T352 536Q408 536 457 515T543 457T601 371T622 264Q622 207 601 158T542 72T455 14T347 -7Q310 -7 276 2T212 28V-211H50ZM324 398Q290 398 262 388T212 356V171Q233
152 262 141T324 130Q383 130 423 168T463 264Q463 321 423 359T324 398Z" />
<glyph unicode="q" glyph-name="q" horiz-adv-x="648" d="M296 -7Q240 -7 191 14T105 72T47 158T26 265Q26 322 47 371T106 457T193 515T301 536Q338 536 373 527T438 499V529H598V-211H436V37Q405 15 370 4T296 -7ZM185 265Q185 208 225 170T324 131Q358 131
386 141T436 173V358Q415 377 386 388T324 399Q265 399 225 361T185 265Z" />
<glyph unicode="r" glyph-name="r" horiz-adv-x="432" d="M50 0V529H212V476Q238 507 273 524T351 541Q374 540 388 538T412 528V387Q396 394 376 398T335 403Q297 403 265 385T212 336V0H50Z" />
<glyph unicode="s" glyph-name="s" horiz-adv-x="509" d="M9 59L86 168Q136 138 177 125T258 111Q298 111 321 122T345 153Q345 168 332 177T291 191L186 207Q108 219 66 259T24 365Q24 445 85 491T252 537Q309 537 366 521T473 473L396 369Q353 394 314 405T236
417Q205 417 186 407T167 379Q167 363 181 354T229 339L334 323Q412 312 454 272T497 169Q497 131 479 98T430 41T354 4T259 -10Q184 -10 120 7T9 59Z" />
<glyph unicode="t" glyph-name="t" horiz-adv-x="448" d="M125 161V394H18V529H125V665L287 700V529H435V394H287V193Q287 158 302 144T357 129Q376 129 393 131T430 140V9Q408 2 374 -2T317 -7Q222 -7 174 35T125 161Z" />
<glyph unicode="u" glyph-name="u" horiz-adv-x="611" d="M208 529V225Q208 182 234 156T304 129Q335 129 359 140T399 171V529H561V0H399V36Q370 14 334 2T257 -10Q164 -10 105 50T46 203V529H208Z" />
<glyph unicode="v" glyph-name="v" horiz-adv-x="606" d="M224 0L-2 529H174L305 205L436 529H608L382 0H224Z" />
<glyph unicode="w" glyph-name="w" horiz-adv-x="799" d="M308 0H152L8 529H161L239 218L334 529H468L563 217L640 529H791L646 0H491L399 306L308 0Z" />
<glyph unicode="x" glyph-name="x" horiz-adv-x="580" d="M-5 0L196 268L-2 529H186L290 387L393 529H574L379 270L585 0H397L286 151L176 0H-5Z" />
<glyph unicode="y" glyph-name="y" horiz-adv-x="603" d="M201 -8V-7L-2 529H177L294 196L430 529H605L368 -27Q324 -130 266 -173T113 -216Q94 -216 76 -215T46 -210V-72Q57 -74 68 -75T96 -76Q134 -76 161 -59T201 -8Z" />
<glyph unicode="z" glyph-name="z" horiz-adv-x="514" d="M25 0V113L271 394H27V529H481V416L234 135H489V0H25Z" />
<glyph unicode="{" glyph-name="braceleft" horiz-adv-x="448" d="M304 84L272 -8Q259 -46 273 -71T323 -98Q339 -98 355 -95T386 -87L408 -202Q381 -211 355 -215T301 -220Q249 -220 210 -204T147 -160T119 -93T130 -8L161 80Q177 126 159 156T96 186H11V304H96Q141
304 159 334T161 410L130 498Q114 544 119 583T147 650T209 694T301 710Q329 710 355 706T408 692L386 577Q371 582 355 585T323 588Q287 587 273 562T272 498L304 406Q324 349 294 304T199 245Q264 232 294 187T304 84Z" />
<glyph unicode="|" glyph-name="bar" horiz-adv-x="344" d="M97 -214V700H248V-214H97Z" />
<glyph unicode="}" glyph-name="braceright" horiz-adv-x="448" d="M144 407L176 499Q189 537 175 562T125 589Q109 589 93 586T62 578L40 693Q67 702 93 706T147 711Q199 711 238 695T301 651T329 584T318 499L287 411Q271 365 289 335T352 305H437V187H352Q307
187 289 157T287 81L318 -7Q334 -53 329 -92T301 -159T239 -203T147 -219Q119 -219 93 -215T40 -201L62 -86Q77 -91 93 -94T125 -97Q161 -96 175 -71T176 -7L144 85Q124 142 154 187T249 246Q184 259 154 304T144 407Z" />
<glyph unicode="~" glyph-name="asciitilde" horiz-adv-x="618" d="M273 448L365 405Q387 395 400 391T424 387Q450 387 465 405T485 461L596 449Q586 362 546 316T442 269Q418 269 393 275T345 292L253 335Q231 345 218 349T194 353Q168 353 153 335T133 279L22
291Q32 378 72 424T176 471Q200 471 225 465T273 448Z" />
<glyph unicode="&#xa0;" glyph-name="nbspace" horiz-adv-x="195" />
<glyph unicode="&#xa1;" glyph-name="exclamdown" horiz-adv-x="258" d="M191 485L211 -44H47L67 485H191ZM129 712Q167 712 194 685T222 619Q222 581 195 554T129 526Q91 526 64 553T36 619Q36 657 63 684T129 712Z" />
<glyph unicode="&#xa2;" glyph-name="cent" horiz-adv-x="539" d="M276 -110V-9Q223 -4 177 19T98 78T45 162T26 264Q26 318 45 366T97 450T177 509T276 538V625H342V537Q396 530 445 506T530 441L431 338Q410 362 389 376T342 396V133Q366 137 387 151T429 187L525
87Q491 48 443 24T342 -8V-110H276ZM187 264Q187 217 211 183T276 136V394Q237 383 212 348T187 264Z" />
<glyph unicode="&#xa3;" glyph-name="sterling" horiz-adv-x="661" d="M227 25Q217 27 208 28T190 30Q162 30 142 15T106 -35L-17 41Q11 93 49 122T136 157Q143 164 146 173T150 192Q150 196 148 208T134 275H40V377H114Q106 416 104 436T101 473Q101 578 170
644T354 710Q456 710 523 664T619 525L486 481Q469 529 439 553T362 578Q308 578 280 550T251 471Q251 461 253 444T266 377H446V275H288Q291 256 292 245T294 224Q294 199 287 179T265 143L415 105Q425 102 435 101T454 100Q481 100 501 114T536 159L654 89Q622
29 578 0T477 -29Q458 -29 439 -26T397 -18L227 25Z" />
<glyph unicode="&#xa4;" glyph-name="uni00A4" horiz-adv-x="686" d="M95 39L20 114L115 210Q92 242 79 281T66 364Q66 407 79 446T114 518L19 615L96 692L194 593Q226 612 264 623T343 634Q385 634 423 623T493 592L592 691L667 616L571 519Q594 487 607 447T620
364Q620 321 608 282T572 211L668 115L591 38L493 137Q461 117 423 106T343 95Q301 95 263 106T192 137L95 39ZM343 230Q397 230 434 269T472 364Q472 421 435 460T343 499Q289 499 252 460T214 364Q214 308 251 269T343 230Z" />
<glyph unicode="&#xa5;" glyph-name="yen" horiz-adv-x="738" d="M111 216H280V261L275 269H111V350H221L-10 700H188L371 413L555 700H742L511 350H627V269H457L452 261V216H627V135H452V0H280V135H111V216Z" />
<glyph unicode="&#xa6;" glyph-name="uni00A6" horiz-adv-x="344" d="M248 283H97V700H248V283ZM97 -214V203H248V-214H97Z" />
<glyph unicode="&#xa7;" glyph-name="section" horiz-adv-x="584" d="M489 106Q489 34 432 -10T279 -55Q222 -55 169 -40T69 3L131 97Q174 71 211 59T281 47Q310 47 327 59T344 93Q344 109 332 120T291 141L187 176Q100 204 65 239T30 331Q30 377 55 411T123 465Q109
481 102 501T95 547Q95 620 153 665T307 710Q361 710 414 695T516 651L454 557Q411 582 374 594T304 607Q275 607 258 595T241 561Q241 545 253 534T294 513L397 478Q484 449 519 415T554 323Q554 277 530 242T462 187Q476 171 482 151T489 106ZM343 254Q348 253
353 251T364 247Q390 251 405 266T421 303Q421 323 407 337T361 362L241 400Q236 401 231 403T221 407Q194 403 179 388T163 350Q163 330 177 317T223 292L343 254Z" />
<glyph unicode="&#xa8;" glyph-name="dieresis" horiz-adv-x="608" d="M186 602Q150 602 126 626T101 684Q101 719 125 742T186 766Q223 766 247 743T271 684Q271 650 247 626T186 602ZM422 602Q386 602 362 626T337 684Q337 719 361 742T422 766Q459 766 483
743T507 684Q507 650 483 626T422 602Z" />
<glyph unicode="&#xa9;" glyph-name="copyright" horiz-adv-x="783" d="M33 350Q33 425 61 491T137 606T250 683T391 711Q466 711 531 683T645 607T721 492T749 350Q749 275 721 209T645 94T532 17T391 -11Q316 -11 251 17T137 93T61 208T33 350ZM678 350Q678
411 656 464T594 558T503 621T391 644Q332 644 280 621T189 558T128 465T105 350Q105 289 127 236T188 142T279 79T391 56Q450 56 502 79T594 142T655 235T678 350ZM203 351Q203 391 218 426T259 487T321 527T398 542Q443 542 484 524T553 474L485 403Q465 425
446 435T401 445Q364 445 340 418T315 351Q315 311 340 285T403 258Q426 258 445 268T483 298L550 228Q521 196 481 179T398 161Q357 161 321 175T259 215T218 276T203 351Z" />
<glyph unicode="&#xaa;" glyph-name="ordfeminine" horiz-adv-x="450" d="M172 295Q108 295 68 330T27 419Q27 475 70 506T192 538Q214 538 236 535T280 528V545Q280 573 262 587T206 602Q184 602 155 595T86 571L41 664Q90 686 136 697T229 708Q313 708 359 668T405
556V302H280V325Q256 309 230 302T172 295ZM148 421Q148 404 163 394T207 384Q228 384 246 388T280 401V449Q263 453 246 455T211 457Q180 457 164 448T148 421Z" />
<glyph unicode="&#xab;" glyph-name="guillemotleft" horiz-adv-x="711" d="M424 529L185 266L427 0H260L14 265L260 529H424ZM687 529L448 266L690 0H523L277 265L523 529H687Z" />
<glyph unicode="&#xac;" glyph-name="uni00AC" horiz-adv-x="563" d="M38 354H525V0H363V219H38V354Z" />
<glyph unicode="&#xad;" glyph-name="uni00AD" horiz-adv-x="463" d="M38 354H425V219H38V354Z" />
<glyph unicode="&#xae;" glyph-name="registered" horiz-adv-x="486" d="M243 304Q200 304 162 320T96 365T52 431T36 513Q36 557 52 595T96 661T162 705T243 722Q286 722 324 706T390 661T434 595T450 513Q450 470 434 432T390 365T324 321T243 304ZM242 353Q310
353 353 398T397 513Q397 582 354 627T242 673Q176 673 133 628T89 513Q89 444 132 399T242 353ZM168 420V608H258Q287 608 304 592T322 548Q322 532 314 518T290 496L333 420H275L242 485H221V420H168ZM246 568H221V522H245Q256 522 263 528T270 545Q270 556 264
562T246 568Z" />
<glyph unicode="&#xaf;" glyph-name="overscore" horiz-adv-x="516" d="M429 728V624H94V728H429Z" />
<glyph unicode="&#xb0;" glyph-name="degree" horiz-adv-x="370" d="M185 416Q124 416 81 459T38 565Q38 625 81 667T185 710Q245 710 288 668T331 565Q331 504 288 460T185 416ZM185 499Q210 499 228 518T247 565Q247 590 229 608T185 627Q159 627 141 609T122
565Q122 538 140 519T185 499Z" />
<glyph unicode="&#xb1;" glyph-name="plusminus" horiz-adv-x="560" d="M343 209H218V359H43V482H218V629H343V482H517V359H343V209ZM517 123V-1H43V123H517Z" />
<glyph unicode="&#xb2;" glyph-name="twosuperior" horiz-adv-x="313" d="M27 350V419L170 538Q183 548 190 560T198 584Q198 600 185 611T150 622Q126 622 105 612T59 579L5 643Q38 673 76 688T154 705Q216 704 254 673T293 590Q293 560 278 533T230 481L170
431H295V350H27Z" />
<glyph unicode="&#xb3;" glyph-name="threesuperior" horiz-adv-x="335" d="M314 450Q314 404 271 375T162 345Q117 345 78 360T14 404L80 464Q99 443 116 436T161 428Q186 428 200 436T215 458Q215 468 204 474T170 480H135V557H159Q181 557 194 566T208 591Q208
604 195 612T161 621Q137 621 121 613T82 582L16 641Q42 670 82 688T165 706Q228 706 267 678T306 604Q306 579 294 558T261 523Q286 513 300 494T314 450Z" />
<glyph unicode="&#xb4;" glyph-name="acute" horiz-adv-x="516" d="M237 747H418L278 611H149L237 747Z" />
<glyph unicode="&#xb5;" glyph-name="uni00B5" horiz-adv-x="611" d="M208 529V225Q208 182 234 156T304 129Q335 129 359 140T399 171V529H561V0H399V36Q370 14 334 2T257 -10Q244 -10 232 -9T208 -5V-211H46V529H208Z" />
<glyph unicode="&#xb6;" glyph-name="paragraph" horiz-adv-x="719" d="M312 0V238H283Q226 238 178 254T96 301T42 372T23 464Q23 571 94 635T283 700H660V0H529V238H442V0H312ZM529 365V570H442V365H529ZM276 365H312V570H276Q226 570 196 542T165 468Q165 422
195 394T276 365Z" />
<glyph unicode="&#xb7;" glyph-name="middot" horiz-adv-x="258" d="M129 380Q167 380 194 353T222 287Q222 249 195 222T129 194Q91 194 64 221T36 287Q36 325 63 352T129 380Z" />
<glyph unicode="&#xb8;" glyph-name="cedilla" horiz-adv-x="516" d="M407 -134Q407 -178 367 -208T268 -239Q229 -239 197 -228T138 -192L189 -138Q207 -151 226 -158T265 -166Q290 -166 303 -157T316 -132Q316 -117 303 -108T267 -99H220L249 0H325L312 -42Q356
-46 381 -71T407 -134Z" />
<glyph unicode="&#xb9;" glyph-name="onesuperior" horiz-adv-x="207" d="M190 700V350H92V602L15 572V655L129 700H190Z" />
<glyph unicode="&#xba;" glyph-name="ordmasculine" horiz-adv-x="490" d="M26 500Q26 544 43 582T89 648T158 692T243 708Q289 708 328 692T397 648T443 582T460 500Q460 457 443 420T397 354T329 310T243 294Q197 294 158 310T89 354T43 419T26 500ZM337 500Q337
541 310 569T243 598Q204 598 177 570T150 500Q150 460 177 432T243 404Q283 404 310 432T337 500Z" />
<glyph unicode="&#xbb;" glyph-name="guillemotright" horiz-adv-x="711" d="M287 0L526 263L284 529H451L697 264L451 0H287ZM24 0L263 263L21 529H188L434 264L188 0H24Z" />
<glyph unicode="&#xbc;" glyph-name="onequarter" horiz-adv-x="690" d="M638 350V152H682V72H638V0H540V72H344V151L523 350H638ZM453 152H540V247L453 152ZM190 700V350H92V602L15 572V655L129 700H190ZM177 0H59L456 700H575L177 0Z" />
<glyph unicode="&#xbd;" glyph-name="onehalf" horiz-adv-x="715" d="M190 700V350H92V602L15 572V655L129 700H190ZM177 0H59L456 700H575L177 0ZM429 0V69L572 188Q585 198 592 210T600 234Q600 250 587 261T552 272Q528 272 507 262T461 229L407 293Q440 323
478 338T556 355Q618 354 656 323T695 240Q695 210 680 183T632 131L572 81H697V0H429Z" />
<glyph unicode="&#xbe;" glyph-name="threequarters" horiz-adv-x="783" d="M314 450Q314 404 271 375T162 345Q117 345 78 360T14 404L80 464Q99 443 116 436T161 428Q186 428 200 436T215 458Q215 468 204 474T170 480H135V557H159Q181 557 194 566T208 591Q208
604 195 612T161 621Q137 621 121 613T82 582L16 641Q42 670 82 688T165 706Q228 706 267 678T306 604Q306 579 294 558T261 523Q286 513 300 494T314 450ZM731 350V152H775V72H731V0H633V72H437V151L616 350H731ZM546 152H633V247L546 152ZM270 0H152L549 700H668L270
0Z" />
<glyph unicode="&#xbf;" glyph-name="questiondown" horiz-adv-x="534" d="M134 364L159 381Q188 400 199 422T210 482H345Q349 413 333 374T270 300L216 260Q191 241 179 224T166 191Q166 162 192 143T258 123Q301 123 336 146T387 207L518 158Q490 81 418 35T252
-11Q200 -11 155 3T78 44T27 105T8 181Q8 236 35 275T134 364ZM277 525Q239 525 212 552T184 618Q184 656 211 683T277 711Q315 711 342 684T370 618Q370 580 343 553T277 525Z" />
<glyph unicode="&#xc0;" glyph-name="Agrave" horiz-adv-x="753" d="M-7 0L280 700H477L760 0H574L510 169H237L172 0H-7ZM289 306H459L375 530L289 306ZM371 918L458 782H328L189 918H371Z" />
<glyph unicode="&#xc1;" glyph-name="Aacute" horiz-adv-x="753" d="M-7 0L280 700H477L760 0H574L510 169H237L172 0H-7ZM289 306H459L375 530L289 306ZM389 918H570L430 782H301L389 918Z" />
<glyph unicode="&#xc2;" glyph-name="Acircumflex" horiz-adv-x="753" d="M-7 0L280 700H477L760 0H574L510 169H237L172 0H-7ZM289 306H459L375 530L289 306ZM446 780L376 851L306 780H177L296 921H460L579 780H446Z" />
<glyph unicode="&#xc3;" glyph-name="Atilde" horiz-adv-x="753" d="M-7 0L280 700H477L760 0H574L510 169H237L172 0H-7ZM289 306H459L375 530L289 306ZM272 769L175 790Q189 856 219 888T297 920Q318 920 338 913T378 896T414 880T444 872Q460 872 470 883T487
924L582 903Q569 837 539 805T461 773Q440 773 420 780T381 797T345 813T313 821Q297 821 288 809T272 769Z" />
<glyph unicode="&#xc4;" glyph-name="Adieresis" horiz-adv-x="753" d="M-7 0L280 700H477L760 0H574L510 169H237L172 0H-7ZM289 306H459L375 530L289 306ZM259 773Q223 773 199 797T174 855Q174 890 198 913T259 937Q296 937 320 914T344 855Q344 821 320 797T259
773ZM495 773Q459 773 435 797T410 855Q410 890 434 913T495 937Q532 937 556 914T580 855Q580 821 556 797T495 773Z" />
<glyph unicode="&#xc5;" glyph-name="Aring" horiz-adv-x="753" d="M-7 0L280 700H477L760 0H574L510 169H237L172 0H-7ZM289 306H459L375 530L289 306ZM377 756Q323 756 286 793T249 883Q249 934 286 970T377 1007Q430 1007 467 971T505 883Q505 830 468 793T377
756ZM377 822Q402 822 418 840T435 883Q435 907 418 924T377 941Q353 941 336 924T319 883Q319 857 335 840T377 822Z" />
<glyph unicode="&#xc6;" glyph-name="AE" horiz-adv-x="994" d="M-7 0L280 700H951V551H539L587 425H828V281H642L693 149H951V0H574L510 169H237L172 0H-7ZM289 306H459L375 530L289 306Z" />
<glyph unicode="&#xc7;" glyph-name="Ccedilla" horiz-adv-x="716" d="M415 149Q466 149 509 171T588 236L701 125Q657 70 587 35T442 -8L432 -42Q476 -46 501 -71T527 -134Q527 -178 487 -208T388 -239Q349 -239 317 -228T258 -192L309 -138Q327 -151 346 -158T385
-166Q410 -166 423 -157T436 -132Q436 -117 423 -108T387 -99H340L367 -8Q295 -1 234 29T128 107T59 217T33 350Q33 426 62 492T141 607T261 683T409 711Q452 711 495 701T577 674T649 631T706 574L590 460Q553 506 508 529T409 553Q367 553 331 538T268 495T226
431T210 350Q210 307 225 271T268 207T333 165T415 149Z" />
<glyph unicode="&#xc8;" glyph-name="Egrave" horiz-adv-x="657" d="M58 0V700H610V551H230V425H481V281H230V149H614V0H58ZM340 918L427 782H297L158 918H340Z" />
<glyph unicode="&#xc9;" glyph-name="Eacute" horiz-adv-x="657" d="M58 0V700H610V551H230V425H481V281H230V149H614V0H58ZM358 918H539L399 782H270L358 918Z" />
<glyph unicode="&#xca;" glyph-name="Ecircumflex" horiz-adv-x="657" d="M58 0V700H610V551H230V425H481V281H230V149H614V0H58ZM415 780L345 851L275 780H146L265 921H429L548 780H415Z" />
<glyph unicode="&#xcb;" glyph-name="Edieresis" horiz-adv-x="657" d="M58 0V700H610V551H230V425H481V281H230V149H614V0H58ZM228 773Q192 773 168 797T143 855Q143 890 167 913T228 937Q265 937 289 914T313 855Q313 821 289 797T228 773ZM464 773Q428 773
404 797T379 855Q379 890 403 913T464 937Q501 937 525 914T549 855Q549 821 525 797T464 773Z" />
<glyph unicode="&#xcc;" glyph-name="Igrave" horiz-adv-x="288" d="M58 0V700H230V0H58ZM138 918L225 782H95L-44 918H138Z" />
<glyph unicode="&#xcd;" glyph-name="Iacute" horiz-adv-x="288" d="M58 0V700H230V0H58ZM156 918H337L197 782H68L156 918Z" />
<glyph unicode="&#xce;" glyph-name="Icircumflex" horiz-adv-x="288" d="M58 0V700H230V0H58ZM213 780L143 851L73 780H-56L63 921H227L346 780H213Z" />
<glyph unicode="&#xcf;" glyph-name="Idieresis" horiz-adv-x="288" d="M58 0V700H230V0H58ZM26 773Q-10 773 -34 797T-59 855Q-59 890 -35 913T26 937Q63 937 87 914T111 855Q111 821 87 797T26 773ZM262 773Q226 773 202 797T177 855Q177 890 201 913T262 937Q299
937 323 914T347 855Q347 821 323 797T262 773Z" />
<glyph unicode="&#xd0;" glyph-name="Eth" horiz-adv-x="780" d="M93 0V283H18V418H93V700H377Q454 700 522 673T639 598T718 487T747 348Q747 276 718 212T640 101T522 27T377 0H93ZM373 548H265V418H421V283H265V152H373Q414 152 450 167T512 208T554 271T569
348Q569 390 554 426T513 490T450 532T373 548Z" />
<glyph unicode="&#xd1;" glyph-name="Ntilde" horiz-adv-x="758" d="M58 700H220L538 294V700H700V0H548L220 422V0H58V700ZM274 769L177 790Q191 856 221 888T299 920Q320 920 340 913T380 896T416 880T446 872Q462 872 472 883T489 924L584 903Q571 837 541
805T463 773Q442 773 422 780T383 797T347 813T315 821Q299 821 290 809T274 769Z" />
<glyph unicode="&#xd2;" glyph-name="Ograve" horiz-adv-x="814" d="M781 350Q781 275 752 209T673 94T554 17T407 -11Q329 -11 260 17T141 93T62 208T33 350Q33 425 62 491T141 606T260 683T407 711Q485 711 554 683T673 607T752 492T781 350ZM604 350Q604 393
589 430T548 495T485 537T407 553Q365 553 329 538T267 495T225 431T210 350Q210 307 225 270T266 205T329 163T407 147Q449 147 485 162T547 205T589 269T604 350ZM401 918L488 782H358L219 918H401Z" />
<glyph unicode="&#xd3;" glyph-name="Oacute" horiz-adv-x="814" d="M781 350Q781 275 752 209T673 94T554 17T407 -11Q329 -11 260 17T141 93T62 208T33 350Q33 425 62 491T141 606T260 683T407 711Q485 711 554 683T673 607T752 492T781 350ZM604 350Q604 393
589 430T548 495T485 537T407 553Q365 553 329 538T267 495T225 431T210 350Q210 307 225 270T266 205T329 163T407 147Q449 147 485 162T547 205T589 269T604 350ZM419 918H600L460 782H331L419 918Z" />
<glyph unicode="&#xd4;" glyph-name="Ocircumflex" horiz-adv-x="814" d="M781 350Q781 275 752 209T673 94T554 17T407 -11Q329 -11 260 17T141 93T62 208T33 350Q33 425 62 491T141 606T260 683T407 711Q485 711 554 683T673 607T752 492T781 350ZM604 350Q604
393 589 430T548 495T485 537T407 553Q365 553 329 538T267 495T225 431T210 350Q210 307 225 270T266 205T329 163T407 147Q449 147 485 162T547 205T589 269T604 350ZM476 780L406 851L336 780H207L326 921H490L609 780H476Z" />
<glyph unicode="&#xd5;" glyph-name="Otilde" horiz-adv-x="814" d="M781 350Q781 275 752 209T673 94T554 17T407 -11Q329 -11 260 17T141 93T62 208T33 350Q33 425 62 491T141 606T260 683T407 711Q485 711 554 683T673 607T752 492T781 350ZM604 350Q604 393
589 430T548 495T485 537T407 553Q365 553 329 538T267 495T225 431T210 350Q210 307 225 270T266 205T329 163T407 147Q449 147 485 162T547 205T589 269T604 350ZM302 769L205 790Q219 856 249 888T327 920Q348 920 368 913T408 896T444 880T474 872Q490 872
500 883T517 924L612 903Q599 837 569 805T491 773Q470 773 450 780T411 797T375 813T343 821Q327 821 318 809T302 769Z" />
<glyph unicode="&#xd6;" glyph-name="Odieresis" horiz-adv-x="814" d="M781 350Q781 275 752 209T673 94T554 17T407 -11Q329 -11 260 17T141 93T62 208T33 350Q33 425 62 491T141 606T260 683T407 711Q485 711 554 683T673 607T752 492T781 350ZM604 350Q604
393 589 430T548 495T485 537T407 553Q365 553 329 538T267 495T225 431T210 350Q210 307 225 270T266 205T329 163T407 147Q449 147 485 162T547 205T589 269T604 350ZM289 773Q253 773 229 797T204 855Q204 890 228 913T289 937Q326 937 350 914T374 855Q374
821 350 797T289 773ZM525 773Q489 773 465 797T440 855Q440 890 464 913T525 937Q562 937 586 914T610 855Q610 821 586 797T525 773Z" />
<glyph unicode="&#xd7;" glyph-name="multiply" horiz-adv-x="541" d="M122 133L47 208L195 358L46 509L123 586L271 436L419 585L494 510L346 360L495 209L418 132L270 282L122 133Z" />
<glyph unicode="&#xd8;" glyph-name="Oslash" horiz-adv-x="814" d="M187 0H40L128 107Q84 155 59 217T33 350Q33 425 62 491T141 606T260 683T407 711Q457 711 503 700T589 667L617 700H765L681 598Q727 550 754 486T781 350Q781 275 752 209T673 94T554 17T407
-11Q355 -11 307 1T218 37L187 0ZM210 350Q210 319 217 292T239 241L484 538Q466 545 447 549T407 553Q365 553 329 538T267 495T225 431T210 350ZM604 350Q604 383 596 412T571 465L323 165Q342 156 363 152T407 147Q449 147 485 162T547 205T589 269T604 350Z"
/>
<glyph unicode="&#xd9;" glyph-name="Ugrave" horiz-adv-x="733" d="M685 305Q685 234 662 176T598 76T497 13T366 -10Q294 -10 235 12T134 75T71 174T48 305V700H220V305Q220 234 260 192T367 149Q433 149 473 191T513 305V700H685V305ZM361 918L448 782H318L179
918H361Z" />
<glyph unicode="&#xda;" glyph-name="Uacute" horiz-adv-x="733" d="M685 305Q685 234 662 176T598 76T497 13T366 -10Q294 -10 235 12T134 75T71 174T48 305V700H220V305Q220 234 260 192T367 149Q433 149 473 191T513 305V700H685V305ZM379 918H560L420 782H291L379
918Z" />
<glyph unicode="&#xdb;" glyph-name="Ucircumflex" horiz-adv-x="733" d="M685 305Q685 234 662 176T598 76T497 13T366 -10Q294 -10 235 12T134 75T71 174T48 305V700H220V305Q220 234 260 192T367 149Q433 149 473 191T513 305V700H685V305ZM436 780L366 851L296
780H167L286 921H450L569 780H436Z" />
<glyph unicode="&#xdc;" glyph-name="Udieresis" horiz-adv-x="733" d="M685 305Q685 234 662 176T598 76T497 13T366 -10Q294 -10 235 12T134 75T71 174T48 305V700H220V305Q220 234 260 192T367 149Q433 149 473 191T513 305V700H685V305ZM249 773Q213 773 189
797T164 855Q164 890 188 913T249 937Q286 937 310 914T334 855Q334 821 310 797T249 773ZM485 773Q449 773 425 797T400 855Q400 890 424 913T485 937Q522 937 546 914T570 855Q570 821 546 797T485 773Z" />
<glyph unicode="&#xdd;" glyph-name="Yacute" horiz-adv-x="732" d="M280 0V261L-10 700H188L371 413L555 700H742L452 261V0H280ZM378 918H559L419 782H290L378 918Z" />
<glyph unicode="&#xde;" glyph-name="Thorn" horiz-adv-x="695" d="M58 0V700H230V575H427Q478 575 522 558T597 510T647 439T665 348Q665 301 647 260T597 190T522 143T427 126H230V0H58ZM407 428H230V268H407Q444 268 467 290T491 347Q491 383 468 405T407 428Z" />
<glyph unicode="&#xdf;" glyph-name="germandbls" horiz-adv-x="708" d="M455 368Q455 355 463 347T495 330L575 302Q642 277 671 244T701 159Q701 81 644 35T489 -11Q423 -11 369 9T269 70L347 156Q380 127 414 113T482 98Q516 98 535 111T554 148Q554 167 542
179T497 201L410 230Q354 249 328 277T301 345Q301 388 326 414T380 460T435 496T460 538Q460 567 427 587T345 607Q280 607 246 571T211 465V0H50V470Q50 594 127 664T341 735Q466 735 542 688T618 562Q618 514 593 484T537 435T481 401T455 368Z" />
<glyph unicode="&#xe0;" glyph-name="agrave" horiz-adv-x="571" d="M219 -9Q135 -9 81 37T27 155Q27 230 84 272T245 314Q276 314 306 310T365 299V325Q365 365 340 384T264 404Q233 404 194 394T104 362L46 481Q110 510 171 524T293 539Q403 539 464 487T525
339V0H365V32Q333 10 298 1T219 -9ZM181 158Q181 133 203 119T264 105Q293 105 318 111T365 130V198Q342 204 318 207T269 210Q227 210 204 197T181 158ZM528 747L615 611H485L346 747H528Z" />
<glyph unicode="&#xe1;" glyph-name="aacute" horiz-adv-x="571" d="M219 -9Q135 -9 81 37T27 155Q27 230 84 272T245 314Q276 314 306 310T365 299V325Q365 365 340 384T264 404Q233 404 194 394T104 362L46 481Q110 510 171 524T293 539Q403 539 464 487T525
339V0H365V32Q333 10 298 1T219 -9ZM181 158Q181 133 203 119T264 105Q293 105 318 111T365 130V198Q342 204 318 207T269 210Q227 210 204 197T181 158ZM290 747H471L331 611H202L290 747Z" />
<glyph unicode="&#xe2;" glyph-name="acircumflex" horiz-adv-x="571" d="M219 -9Q135 -9 81 37T27 155Q27 230 84 272T245 314Q276 314 306 310T365 299V325Q365 365 340 384T264 404Q233 404 194 394T104 362L46 481Q110 510 171 524T293 539Q403 539 464 487T525
339V0H365V32Q333 10 298 1T219 -9ZM181 158Q181 133 203 119T264 105Q293 105 318 111T365 130V198Q342 204 318 207T269 210Q227 210 204 197T181 158ZM347 609L277 680L207 609H78L197 750H361L480 609H347Z" />
<glyph unicode="&#xe3;" glyph-name="atilde" horiz-adv-x="571" d="M219 -9Q135 -9 81 37T27 155Q27 230 84 272T245 314Q276 314 306 310T365 299V325Q365 365 340 384T264 404Q233 404 194 394T104 362L46 481Q110 510 171 524T293 539Q403 539 464 487T525
339V0H365V32Q333 10 298 1T219 -9ZM181 158Q181 133 203 119T264 105Q293 105 318 111T365 130V198Q342 204 318 207T269 210Q227 210 204 197T181 158ZM173 598L76 619Q90 685 120 717T198 749Q219 749 239 742T279 725T315 709T345 701Q361 701 371 712T388
753L483 732Q470 666 440 634T362 602Q341 602 321 609T282 626T246 642T214 650Q198 650 189 638T173 598Z" />
<glyph unicode="&#xe4;" glyph-name="adieresis" horiz-adv-x="571" d="M219 -9Q135 -9 81 37T27 155Q27 230 84 272T245 314Q276 314 306 310T365 299V325Q365 365 340 384T264 404Q233 404 194 394T104 362L46 481Q110 510 171 524T293 539Q403 539 464 487T525
339V0H365V32Q333 10 298 1T219 -9ZM181 158Q181 133 203 119T264 105Q293 105 318 111T365 130V198Q342 204 318 207T269 210Q227 210 204 197T181 158ZM416 602Q380 602 356 626T331 684Q331 719 355 742T416 766Q453 766 477 743T501 684Q501 650 477 626T416
602ZM652 602Q616 602 592 626T567 684Q567 719 591 742T652 766Q689 766 713 743T737 684Q737 650 713 626T652 602Z" />
<glyph unicode="&#xe5;" glyph-name="aring" horiz-adv-x="571" d="M219 -9Q135 -9 81 37T27 155Q27 230 84 272T245 314Q276 314 306 310T365 299V325Q365 365 340 384T264 404Q233 404 194 394T104 362L46 481Q110 510 171 524T293 539Q403 539 464 487T525
339V0H365V32Q333 10 298 1T219 -9ZM181 158Q181 133 203 119T264 105Q293 105 318 111T365 130V198Q342 204 318 207T269 210Q227 210 204 197T181 158ZM278 585Q224 585 187 622T150 712Q150 763 187 799T278 836Q331 836 368 800T406 712Q406 659 369 622T278
585ZM278 651Q303 651 319 669T336 712Q336 736 319 753T278 770Q254 770 237 753T220 712Q220 686 236 669T278 651Z" />
<glyph unicode="&#xe6;" glyph-name="ae" horiz-adv-x="934" d="M219 -9Q137 -9 85 37T32 155Q32 230 88 272T245 314Q276 314 306 310T365 299V325Q365 365 340 384T264 404Q233 404 194 394T104 362L46 481Q110 510 171 524T293 539Q352 539 397 523T472 476Q506
506 549 522T641 538Q699 538 748 516T832 456T888 365T908 249V209H531Q547 172 581 149T661 125Q694 125 721 135T767 165L874 70Q824 28 772 9T653 -10Q590 -10 536 12T443 75Q394 31 341 11T219 -9ZM638 406Q598 406 569 384T528 322H749Q736 360 707 383T638
406ZM186 158Q186 133 206 119T264 105Q298 105 329 117T389 153Q385 163 381 174T374 195Q349 202 323 206T269 210Q229 210 208 197T186 158Z" />
<glyph unicode="&#xe7;" glyph-name="ccedilla" horiz-adv-x="539" d="M314 130Q347 130 375 144T429 187L525 87Q491 48 443 24T342 -8L331 -42Q375 -46 400 -71T426 -134Q426 -178 386 -208T287 -239Q248 -239 216 -228T157 -192L208 -138Q226 -151 245 -158T284
-166Q309 -166 322 -157T335 -132Q335 -117 322 -108T286 -99H239L266 -7Q215 0 171 23T94 82T44 164T26 264Q26 322 47 372T106 459T195 517T306 539Q371 539 430 513T530 441L431 338Q403 369 374 384T310 399Q258 399 223 360T187 264Q187 207 223 169T314 130Z"
/>
<glyph unicode="&#xe8;" glyph-name="egrave" horiz-adv-x="595" d="M535 70Q485 28 433 9T314 -10Q254 -10 201 11T110 69T49 156T26 264Q26 321 47 371T106 459T193 517T302 538Q360 538 409 516T493 456T549 365T569 249V209H192Q208 172 242 149T322 125Q355
125 382 135T428 165L535 70ZM299 406Q259 406 230 384T189 322H410Q397 360 368 383T299 406ZM294 747L381 611H251L112 747H294Z" />
<glyph unicode="&#xe9;" glyph-name="eacute" horiz-adv-x="595" d="M535 70Q485 28 433 9T314 -10Q254 -10 201 11T110 69T49 156T26 264Q26 321 47 371T106 459T193 517T302 538Q360 538 409 516T493 456T549 365T569 249V209H192Q208 172 242 149T322 125Q355
125 382 135T428 165L535 70ZM299 406Q259 406 230 384T189 322H410Q397 360 368 383T299 406ZM312 747H493L353 611H224L312 747Z" />
<glyph unicode="&#xea;" glyph-name="ecircumflex" horiz-adv-x="595" d="M535 70Q485 28 433 9T314 -10Q254 -10 201 11T110 69T49 156T26 264Q26 321 47 371T106 459T193 517T302 538Q360 538 409 516T493 456T549 365T569 249V209H192Q208 172 242 149T322
125Q355 125 382 135T428 165L535 70ZM299 406Q259 406 230 384T189 322H410Q397 360 368 383T299 406ZM369 609L299 680L229 609H100L219 750H383L502 609H369Z" />
<glyph unicode="&#xeb;" glyph-name="edieresis" horiz-adv-x="595" d="M535 70Q485 28 433 9T314 -10Q254 -10 201 11T110 69T49 156T26 264Q26 321 47 371T106 459T193 517T302 538Q360 538 409 516T493 456T549 365T569 249V209H192Q208 172 242 149T322 125Q355
125 382 135T428 165L535 70ZM299 406Q259 406 230 384T189 322H410Q397 360 368 383T299 406ZM438 602Q402 602 378 626T353 684Q353 719 377 742T438 766Q475 766 499 743T523 684Q523 650 499 626T438 602ZM674 602Q638 602 614 626T589 684Q589 719 613 742T674
766Q711 766 735 743T759 684Q759 650 735 626T674 602Z" />
<glyph unicode="&#xec;" glyph-name="igrave" horiz-adv-x="262" d="M212 529V0H50V529H212ZM125 747L212 611H82L-57 747H125Z" />
<glyph unicode="&#xed;" glyph-name="iacute" horiz-adv-x="262" d="M212 529V0H50V529H212ZM399 747H580L440 611H311L399 747Z" />
<glyph unicode="&#xee;" glyph-name="icircumflex" horiz-adv-x="262" d="M212 529V0H50V529H212ZM456 609L386 680L316 609H187L306 750H470L589 609H456Z" />
<glyph unicode="&#xef;" glyph-name="idieresis" horiz-adv-x="262" d="M212 529V0H50V529H212ZM13 602Q-23 602 -47 626T-72 684Q-72 719 -48 742T13 766Q50 766 74 743T98 684Q98 650 74 626T13 602ZM249 602Q213 602 189 626T164 684Q164 719 188 742T249 766Q286
766 310 743T334 684Q334 650 310 626T249 602Z" />
<glyph unicode="&#xf0;" glyph-name="eth" horiz-adv-x="596" d="M237 506L177 587L237 626Q220 637 202 647T165 665L251 771Q281 757 308 741T361 706L454 766L514 685L439 637Q501 571 534 490T568 320Q568 169 493 80T287 -9Q232 -9 184 10T101 64T46 145T26
246Q26 293 45 335T98 410T174 462T266 481Q303 481 334 473T390 449Q382 476 363 504T319 559L237 506ZM292 132Q337 132 368 164T400 241Q400 285 368 316T292 348Q246 348 214 317T182 241Q182 196 214 164T292 132Z" />
<glyph unicode="&#xf1;" glyph-name="ntilde" horiz-adv-x="611" d="M50 0V529H212V493Q241 515 277 527T354 539Q447 539 506 479T565 326V0H403V304Q403 347 377 373T307 400Q276 400 252 389T212 358V0H50ZM203 598L106 619Q120 685 150 717T228 749Q249 749
269 742T309 725T345 709T375 701Q391 701 401 712T418 753L513 732Q500 666 470 634T392 602Q371 602 351 609T312 626T276 642T244 650Q228 650 219 638T203 598Z" />
<glyph unicode="&#xf2;" glyph-name="ograve" horiz-adv-x="626" d="M26 264Q26 321 48 371T109 459T200 517T313 539Q373 539 425 518T516 459T577 372T600 264Q600 207 578 157T517 69T426 11T313 -10Q253 -10 201 11T110 69T49 156T26 264ZM313 130Q367 130
404 169T442 264Q442 321 405 360T313 399Q259 399 222 360T184 264Q184 208 221 169T313 130ZM307 747L394 611H264L125 747H307Z" />
<glyph unicode="&#xf3;" glyph-name="oacute" horiz-adv-x="626" d="M26 264Q26 321 48 371T109 459T200 517T313 539Q373 539 425 518T516 459T577 372T600 264Q600 207 578 157T517 69T426 11T313 -10Q253 -10 201 11T110 69T49 156T26 264ZM313 130Q367 130
404 169T442 264Q442 321 405 360T313 399Q259 399 222 360T184 264Q184 208 221 169T313 130ZM325 747H506L366 611H237L325 747Z" />
<glyph unicode="&#xf4;" glyph-name="ocircumflex" horiz-adv-x="626" d="M26 264Q26 321 48 371T109 459T200 517T313 539Q373 539 425 518T516 459T577 372T600 264Q600 207 578 157T517 69T426 11T313 -10Q253 -10 201 11T110 69T49 156T26 264ZM313 130Q367
130 404 169T442 264Q442 321 405 360T313 399Q259 399 222 360T184 264Q184 208 221 169T313 130ZM382 609L312 680L242 609H113L232 750H396L515 609H382Z" />
<glyph unicode="&#xf5;" glyph-name="otilde" horiz-adv-x="626" d="M26 264Q26 321 48 371T109 459T200 517T313 539Q373 539 425 518T516 459T577 372T600 264Q600 207 578 157T517 69T426 11T313 -10Q253 -10 201 11T110 69T49 156T26 264ZM313 130Q367 130
404 169T442 264Q442 321 405 360T313 399Q259 399 222 360T184 264Q184 208 221 169T313 130ZM208 598L111 619Q125 685 155 717T233 749Q254 749 274 742T314 725T350 709T380 701Q396 701 406 712T423 753L518 732Q505 666 475 634T397 602Q376 602 356 609T317
626T281 642T249 650Q233 650 224 638T208 598Z" />
<glyph unicode="&#xf6;" glyph-name="odieresis" horiz-adv-x="626" d="M26 264Q26 321 48 371T109 459T200 517T313 539Q373 539 425 518T516 459T577 372T600 264Q600 207 578 157T517 69T426 11T313 -10Q253 -10 201 11T110 69T49 156T26 264ZM313 130Q367
130 404 169T442 264Q442 321 405 360T313 399Q259 399 222 360T184 264Q184 208 221 169T313 130ZM195 602Q159 602 135 626T110 684Q110 719 134 742T195 766Q232 766 256 743T280 684Q280 650 256 626T195 602ZM431 602Q395 602 371 626T346 684Q346 719 370
742T431 766Q468 766 492 743T516 684Q516 650 492 626T431 602Z" />
<glyph unicode="&#xf7;" glyph-name="divide" horiz-adv-x="560" d="M280 500Q242 500 215 527T187 593Q187 631 214 658T280 686Q318 686 345 659T373 593Q373 555 346 528T280 500ZM43 297V421H517V297H43ZM280 32Q242 32 215 59T187 125Q187 163 214 190T280
218Q318 218 345 191T373 125Q373 87 346 60T280 32Z" />
<glyph unicode="&#xf8;" glyph-name="oslash" horiz-adv-x="626" d="M43 0L104 74Q67 111 47 160T26 264Q26 321 48 371T109 459T200 517T313 539Q353 539 389 530T457 503L478 529H583L522 455Q558 418 579 369T600 264Q600 207 578 157T517 69T426 11T313 -10Q273
-10 237 -1T168 26L147 0H43ZM184 264Q184 245 189 227T202 194L363 389Q352 393 339 396T313 399Q259 399 222 360T184 264ZM313 130Q367 130 404 169T442 264Q442 283 437 301T423 335L263 140Q274 136 287 133T313 130Z" />
<glyph unicode="&#xf9;" glyph-name="ugrave" horiz-adv-x="611" d="M208 529V225Q208 182 234 156T304 129Q335 129 359 140T399 171V529H561V0H399V36Q370 14 334 2T257 -10Q164 -10 105 50T46 203V529H208ZM300 747L387 611H257L118 747H300Z" />
<glyph unicode="&#xfa;" glyph-name="uacute" horiz-adv-x="611" d="M208 529V225Q208 182 234 156T304 129Q335 129 359 140T399 171V529H561V0H399V36Q370 14 334 2T257 -10Q164 -10 105 50T46 203V529H208ZM318 747H499L359 611H230L318 747Z" />
<glyph unicode="&#xfb;" glyph-name="ucircumflex" horiz-adv-x="611" d="M208 529V225Q208 182 234 156T304 129Q335 129 359 140T399 171V529H561V0H399V36Q370 14 334 2T257 -10Q164 -10 105 50T46 203V529H208ZM375 609L305 680L235 609H106L225 750H389L508
609H375Z" />
<glyph unicode="&#xfc;" glyph-name="udieresis" horiz-adv-x="611" d="M208 529V225Q208 182 234 156T304 129Q335 129 359 140T399 171V529H561V0H399V36Q370 14 334 2T257 -10Q164 -10 105 50T46 203V529H208ZM188 602Q152 602 128 626T103 684Q103 719 127
742T188 766Q225 766 249 743T273 684Q273 650 249 626T188 602ZM424 602Q388 602 364 626T339 684Q339 719 363 742T424 766Q461 766 485 743T509 684Q509 650 485 626T424 602Z" />
<glyph unicode="&#xfd;" glyph-name="yacute" horiz-adv-x="603" d="M201 -8V-7L-2 529H177L294 196L430 529H605L368 -27Q324 -130 266 -173T113 -216Q94 -216 76 -215T46 -210V-72Q57 -74 68 -75T96 -76Q134 -76 161 -59T201 -8ZM313 747H494L354 611H225L313 747Z" />
<glyph unicode="&#xfe;" glyph-name="thorn" horiz-adv-x="651" d="M50 -211V700L212 735V492Q243 514 278 525T352 536Q408 536 457 515T543 457T601 371T622 264Q622 207 601 158T542 72T455 14T347 -7Q310 -7 276 2T212 28V-211H50ZM324 398Q290 398 262 388T212
356V171Q233 152 262 141T324 130Q383 130 423 168T463 264Q463 321 423 359T324 398Z" />
<glyph unicode="&#xff;" glyph-name="ydieresis" horiz-adv-x="603" d="M201 -8V-7L-2 529H177L294 196L430 529H605L368 -27Q324 -130 266 -173T113 -216Q94 -216 76 -215T46 -210V-72Q57 -74 68 -75T96 -76Q134 -76 161 -59T201 -8ZM439 602Q403 602 379 626T354
684Q354 719 378 742T439 766Q476 766 500 743T524 684Q524 650 500 626T439 602ZM675 602Q639 602 615 626T590 684Q590 719 614 742T675 766Q712 766 736 743T760 684Q760 650 736 626T675 602Z" />
<glyph unicode="&#x2013;" glyph-name="endash" horiz-adv-x="563" d="M38 354H525V219H38V354Z" />
<glyph unicode="&#x2014;" glyph-name="emdash" horiz-adv-x="713" d="M38 354H675V219H38V354Z" />
<glyph unicode="&#x2018;" glyph-name="quoteleft" horiz-adv-x="258" d="M176 466H9L128 750H249L176 466Z" />
<glyph unicode="&#x2019;" glyph-name="quoteright" horiz-adv-x="258" d="M93 750H260L141 466H20L93 750Z" />
<glyph unicode="&#x201a;" glyph-name="quotesinglbase" horiz-adv-x="258" d="M63 127H230L111 -157H-10L63 127Z" />
<glyph unicode="&#x201c;" glyph-name="quotedblleft" horiz-adv-x="472" d="M176 466H9L128 750H249L176 466ZM390 466H223L342 750H463L390 466Z" />
<glyph unicode="&#x201d;" glyph-name="quotedblright" horiz-adv-x="472" d="M307 750H474L355 466H234L307 750ZM93 750H260L141 466H20L93 750Z" />
<glyph unicode="&#x201e;" glyph-name="quotedblbase" horiz-adv-x="472" d="M277 127H444L325 -157H204L277 127ZM63 127H230L111 -157H-10L63 127Z" />
<glyph unicode="&#x2022;" glyph-name="bullet" horiz-adv-x="366" d="M183 202Q132 202 96 237T59 323Q59 374 95 409T183 445Q235 445 271 410T307 323Q307 272 271 237T183 202Z" />
<glyph unicode="&#x2039;" glyph-name="guilsinglleft" horiz-adv-x="448" d="M424 529L185 266L427 0H260L14 265L260 529H424Z" />
<glyph unicode="&#x203a;" glyph-name="guilsinglright" horiz-adv-x="448" d="M24 0L263 263L21 529H188L434 264L188 0H24Z" />
</font>
</defs>
</svg>
