<svg width="210" height="407" viewBox="0 0 210 407" fill="none" xmlns="http://www.w3.org/2000/svg">
<path d="M298.752 111.213C295.23 114.093 294.606 119.351 296.975 123.775C292.027 128.812 286.079 134.228 279.041 139.588C275.121 142.563 271.253 145.229 267.532 147.602C266.989 146.94 266.43 146.279 265.863 145.625C263.103 142.448 260.162 139.522 257.088 136.831C257.627 134.058 258.528 130.853 260.048 127.457C262.661 121.558 266.151 117.239 269.154 114.26C273.865 116.531 279.286 115.524 281.921 111.624C284.895 107.228 283.23 100.829 278.185 97.3437C273.149 93.8498 266.66 94.567 263.686 98.9633C260.983 102.97 262.126 108.639 266.166 112.258C264.788 116.296 262.167 121.652 257.147 126.238C254.677 128.503 252.157 130.083 249.969 131.196C244.707 127.443 239.125 124.317 233.311 121.846C233.748 117.885 234.479 113.453 235.724 108.707C237.517 101.826 239.905 95.9441 242.304 91.1259C247.293 91.9278 252.037 89.5149 253.502 85.1154C255.189 80.0673 251.884 74.3065 246.141 72.2498C240.4 70.194 234.369 72.6376 232.687 77.6914C231.225 82.0764 233.521 87.0068 237.919 89.5628C236.918 94.9204 235.301 101.064 232.636 107.605C230.834 112.059 228.826 115.999 226.85 119.386C221.148 117.45 215.293 116.112 209.377 115.387C206.802 110.079 204.395 103.36 203.354 95.4293C202.397 88.0006 202.881 81.5502 203.732 76.5727C208.774 75.8121 212.587 71.9395 212.557 67.2018C212.534 61.8263 207.611 57.3752 201.546 57.2712C195.493 57.1439 190.604 61.3998 190.637 66.7684C190.667 71.506 194.484 75.5331 199.557 76.486C200.45 81.3699 201.04 87.8771 200.113 95.3679C199.09 103.633 196.583 110.227 194.304 114.833C187.46 115.178 180.669 116.323 174.069 118.295C173.057 115.747 172.263 112.988 171.781 110.017C171.41 107.652 171.271 105.409 171.29 103.327C176.203 101.699 179.308 97.1042 178.389 92.3755C177.379 87.0807 171.732 83.6033 165.786 84.6139C159.839 85.6236 155.846 90.7266 156.862 96.028C157.762 100.68 162.236 103.931 167.341 103.963C168.157 106.12 168.898 108.449 169.522 110.938C170.253 113.79 170.766 116.557 171.095 119.242C170.44 119.465 169.8 119.687 169.162 119.931C161.64 122.667 154.435 126.525 147.759 131.51C144.257 129.561 140.625 127.186 136.988 124.271C129.574 118.316 124.471 111.961 121.054 106.827C124.114 102.899 124.296 97.5383 121.209 93.9834C117.651 89.8866 111.105 89.7454 106.585 93.6706C102.056 97.6038 101.269 104.113 104.827 108.21C107.967 111.825 113.437 112.351 117.788 109.725C122.563 113.563 128.634 119.465 133.787 127.945C136.044 131.687 137.786 135.371 139.147 138.894C133.432 144.467 128.684 150.676 124.888 157.334C123.056 156.755 121.243 156.051 119.301 155.051C115.461 153.064 112.472 150.673 110.207 148.489C112.103 143.534 110.485 138.001 106.205 135.58C101.493 132.922 95.3465 135.048 92.4729 140.334C89.6085 145.612 91.0993 152.05 95.8205 154.702C99.8908 156.991 105.017 155.719 108.187 151.936C111.232 153.266 114.532 154.982 117.913 157.251C119.715 158.442 121.369 159.701 122.921 160.99C119.711 167.308 117.343 173.969 115.797 180.822C112.104 181.106 108.123 181.17 103.881 180.878C94.1167 180.203 85.9802 177.88 79.9655 175.584C80.0042 170.501 76.8728 165.991 72.2796 165C67.0201 163.868 61.8374 167.768 60.7023 173.709C59.5771 179.644 62.9212 185.376 68.1708 186.515C72.8273 187.505 77.4 184.581 79.1909 179.782C85.1351 179.95 93.5975 181.007 102.904 185.01C107.165 186.836 110.885 188.98 114.115 191.187C113.991 192.427 113.875 193.696 113.799 194.954C113.443 201.276 113.753 207.665 114.763 213.992C112.87 214.856 110.841 215.674 108.671 216.403C101.614 218.771 95.2135 219.535 90.2233 219.691C88.2486 214.909 83.5641 211.968 78.9728 212.915C73.7649 213.983 70.6386 219.679 71.9964 225.632C73.3434 231.591 78.6695 235.547 83.8948 234.463C88.4754 233.522 91.4412 229.006 91.1719 223.882C95.8054 222.061 101.974 220.238 109.404 219.589C111.622 219.395 113.747 219.333 115.794 219.348C117.971 229.141 121.844 238.691 127.436 247.546C124.558 250.522 121.312 253.571 117.606 256.589C112.315 260.9 107.13 264.318 102.368 267.042C98.7272 263.034 93.0899 261.928 89.1359 264.679C84.7825 267.708 84.1208 274.231 87.6499 279.254C91.1882 284.269 97.5744 285.886 101.917 282.864C105.791 280.168 106.725 274.714 104.407 269.998C108.646 266.468 113.653 262.79 119.496 259.283C123.549 256.848 127.476 254.822 131.241 253.09C132.637 254.992 134.132 256.842 135.708 258.657C139.452 262.969 143.506 266.843 147.822 270.264C146.402 275.6 143.957 282.376 139.52 289.496C135.633 295.736 131.34 300.439 127.636 303.865C123.11 301.42 117.744 302.103 114.893 305.773C111.65 309.951 112.908 316.435 117.719 320.241C122.531 324.048 129.069 323.738 132.311 319.559C135.125 315.937 134.552 310.612 131.238 306.777C134.009 302.092 137.552 296.876 142.095 291.539C147.312 285.409 152.594 280.592 157.317 276.845C164.033 280.908 171.191 283.985 178.553 286.1C178.112 288.598 177.493 291.224 176.588 293.962C174.869 299.195 172.596 303.494 170.364 306.937C165.495 305.388 160.391 307.109 158.308 311.278C155.946 316.028 158.419 322.177 163.847 324.996C167.256 326.763 171.026 326.808 173.944 325.408C175.668 324.591 177.098 323.267 177.98 321.498C178.234 320.979 178.443 320.426 178.58 319.865C179.688 315.682 177.533 310.876 173.238 308.236C174.759 304.306 176.767 299.979 179.492 295.481C181.254 292.585 183.08 290.002 184.895 287.684C189.177 288.594 193.519 289.167 197.85 289.414C198.258 289.442 198.676 289.462 199.071 289.474C200.639 294.489 202.082 300.983 202.364 308.593C202.637 316.045 201.737 322.424 200.599 327.366C195.546 327.8 191.525 331.378 191.225 336.067C190.876 341.42 195.5 346.191 201.553 346.724C207.581 347.265 212.772 343.356 213.111 338.011C213.416 333.363 209.966 329.151 205.094 327.783C204.703 322.427 204.693 316.014 205.599 308.888C206.586 301.226 208.384 294.627 210.289 289.259C218.37 288.568 226.376 286.738 234.025 283.76C235.753 286.211 237.47 288.981 239.038 292.097C242.461 298.878 244.232 305.159 245.172 310.097C240.751 312.586 238.569 317.562 240.219 322.027C242.101 327.089 248.222 329.581 253.894 327.592C259.557 325.61 262.628 319.887 260.759 314.802C259.125 310.394 254.294 307.929 249.327 308.684C246.797 303.945 244.17 298.024 242.073 291.035C241.06 287.619 240.299 284.363 239.738 281.282C245.321 278.618 250.668 275.313 255.69 271.321C259.845 274.518 264.254 278.304 268.683 282.778C275.277 289.43 280.329 296.003 284.151 301.732C281.113 305.649 280.941 311.002 284.021 314.549C287.579 318.646 294.124 318.786 298.662 314.845C303.182 310.919 303.96 304.419 300.402 300.323C297.335 296.79 292.033 296.2 287.736 298.63C282.544 293.888 276.802 287.94 271.103 280.677C267.262 275.774 264.018 270.987 261.271 266.497C266.159 261.906 270.371 256.852 273.902 251.456C274.919 251.815 275.95 252.209 276.99 252.632C283.869 255.408 289.3 258.894 293.289 261.994C291.714 266.765 293.326 271.978 297.424 274.317C302.108 277.018 308.275 274.934 311.191 269.678C314.093 264.425 312.655 257.973 307.962 255.281C303.802 252.889 298.477 254.264 295.294 258.271C290.884 256.717 284.832 253.842 278.976 248.519C278.246 247.863 277.556 247.198 276.905 246.521C280.511 240.143 283.231 233.352 285.068 226.336C290.09 226.236 295.676 226.471 301.716 227.266C311.008 228.484 318.956 230.739 325.275 233.034C325.267 238.079 328.39 242.542 332.952 243.534C338.218 244.655 343.39 240.761 344.525 234.82C345.652 228.888 342.311 223.159 337.057 222.016C332.512 221.043 328.021 223.821 326.163 228.432C319.32 227.82 311.223 226.556 302.331 224.082C296.585 222.482 291.363 220.619 286.701 218.663C287.212 215.581 287.558 212.475 287.748 209.337C288.04 204.213 287.896 199.049 287.286 193.921C292.336 191.565 298.474 189.208 305.633 187.454C312.531 185.751 318.846 184.981 324.226 184.702C326.168 189.391 330.734 192.325 335.272 191.463C340.509 190.485 343.732 184.845 342.485 178.872C341.233 172.893 335.967 168.858 330.73 169.836C326.156 170.694 323.102 175.126 323.261 180.216C318.469 181.928 312.286 183.587 304.965 184.25C297.364 184.942 290.692 184.397 285.428 183.5C284.271 178.681 282.7 173.921 280.712 169.272C282.707 167.659 284.915 166.051 287.317 164.538C293.52 160.632 299.453 158.26 304.33 156.794C307.398 160.935 312.62 162.632 316.782 160.582C321.54 158.24 323.153 151.909 320.385 146.434C317.608 140.967 311.512 138.43 306.744 140.779C302.567 142.83 300.812 147.984 302.335 152.928C298.347 155.843 292.844 159.153 285.834 161.613C283.176 162.536 280.587 163.244 278.127 163.768C276.034 159.679 273.609 155.706 270.825 151.892C273.952 148.687 277.378 145.402 281.143 142.12C287.773 136.327 294.243 131.567 300.175 127.681C304.059 130.862 309.333 131.273 312.852 128.408C316.951 125.05 317.122 118.478 313.217 113.741C309.32 108.997 302.843 107.864 298.752 111.213Z" fill="#FFE1E1"/>
</svg>
