<svg width="241" height="179" viewBox="0 0 241 179" fill="none" xmlns="http://www.w3.org/2000/svg">
<path d="M174.159 12.1242C142.8 9.68843 112.632 12.7792 83.3711 26.9219C50.7579 42.6884 28.8542 80.0839 19.8955 113.913C16.5659 126.479 14.8562 139.979 18.8798 152.335C28.1858 180.877 56.4351 176.751 78.4152 165.82C90.8071 159.665 101.223 150.436 111.518 141.302C128.608 126.131 150.463 115.054 164.486 96.624C169.187 90.4266 172.161 83.7001 178.162 78.4975C187.496 70.4003 199.09 64.6451 208.841 56.9382C217.161 50.3377 225.884 40.8148 223.141 30.568C220.315 20.0626 207.542 16.318 196.776 14.7279C189.151 13.5831 181.626 12.6928 174.159 12.1242Z" fill="url(#paint0_linear)"/>
<defs>
<linearGradient id="paint0_linear" x1="159.071" y1="8.79606" x2="49.4546" y2="117.245" gradientUnits="userSpaceOnUse">
<stop stop-color="#FFD3D2"/>
<stop offset="1" stop-color="#FFFAFA"/>
</linearGradient>
</defs>
</svg>
