<svg width="169" height="172" viewBox="0 0 169 172" fill="none" xmlns="http://www.w3.org/2000/svg">
<path d="M108.78 121.506C122.117 128.318 171.374 143.448 163.79 112.135C161.89 104.337 156.346 97.7646 150.033 93.3828C142.804 88.3485 135.68 86.6074 129.36 80.1749C121.66 72.4267 113.386 65.4247 104.645 59.2594C86.6963 46.3608 66.8278 35.3297 45.8883 33.6781C31.2028 32.5254 8.84368 39.8489 7.11542 58.7376C4.59196 86.2365 45.4726 80.1134 60.022 85.9585C73.8237 91.483 84.3216 104.544 96.59 113.864C100.465 116.802 104.545 119.36 108.78 121.506Z" fill="url(#paint0_linear)"/>
<defs>
<linearGradient id="paint0_linear" x1="164.736" y1="111.295" x2="-11.8229" y2="86.4189" gradientUnits="userSpaceOnUse">
<stop stop-color="#FFE1E2"/>
<stop offset="1" stop-color="#FFF8F8"/>
</linearGradient>
</defs>
</svg>
