<svg width="20" height="16" viewBox="0 0 20 16" fill="none" xmlns="http://www.w3.org/2000/svg">
<path d="M19.8922 2.15178C19.3438 2.95387 18.6809 3.63728 17.9033 4.20201C17.9115 4.31659 17.9156 4.48847 17.9156 4.71763C17.9156 5.78162 17.7601 6.84561 17.4491 7.9096C17.1381 8.9654 16.6634 9.98028 16.025 10.9542C15.3948 11.9282 14.6418 12.7917 13.7661 13.5446C12.8903 14.2894 11.8345 14.8869 10.5987 15.3371C9.36279 15.779 8.04099 16 6.63325 16C4.41524 16 2.38548 15.4066 0.543963 14.2199C0.830421 14.2526 1.14962 14.269 1.50155 14.269C3.34307 14.269 4.98407 13.7042 6.42454 12.5748C5.56517 12.5584 4.79582 12.2965 4.11651 11.7891C3.43719 11.2734 2.97067 10.6187 2.71695 9.82478C2.98704 9.8657 3.23667 9.88616 3.46584 9.88616C3.81777 9.88616 4.16561 9.84115 4.50936 9.75112C3.5927 9.56287 2.83154 9.10863 2.22588 8.38839C1.62841 7.65997 1.32968 6.81696 1.32968 5.85937V5.81027C1.88622 6.12128 2.4837 6.28906 3.12209 6.31362C2.58191 5.9535 2.15222 5.48289 1.83303 4.90178C1.51383 4.32068 1.35423 3.69048 1.35423 3.01116C1.35423 2.29092 1.53429 1.62388 1.89441 1.01004C2.88474 2.22954 4.08786 3.20759 5.50378 3.9442C6.92789 4.67262 8.45021 5.07775 10.0707 5.1596C10.0053 4.84859 9.97253 4.54576 9.97253 4.25112C9.97253 3.15439 10.3572 2.22135 11.1266 1.45201C11.9041 0.674479 12.8412 0.285714 13.9379 0.285714C15.0838 0.285714 16.0495 0.703125 16.8353 1.53795C17.7274 1.36607 18.5663 1.04687 19.352 0.580357C19.0492 1.52158 18.4681 2.25 17.6087 2.76562C18.3699 2.68378 19.131 2.47917 19.8922 2.15178Z" fill="#035755"/>
</svg>
