<svg width="21" height="18" viewBox="0 0 21 18" fill="none" xmlns="http://www.w3.org/2000/svg">
<path d="M20.1131 4.50223C20.0313 6.43378 18.6726 9.09784 16.0372 12.4944C13.3118 16.0219 11.0119 17.7857 9.13766 17.7857C7.97546 17.7857 6.99332 16.7094 6.19123 14.5569C5.83111 13.2474 5.29093 11.2749 4.5707 8.63951C3.98141 6.49516 3.33893 5.42299 2.64324 5.42299C2.49592 5.42299 1.9762 5.734 1.08409 6.35603L0.138777 5.1529C0.335205 4.98103 0.777169 4.58817 1.46467 3.97433C2.15217 3.35231 2.68416 2.8776 3.06065 2.55022C4.33744 1.42076 5.32367 0.823288 6.01936 0.757811C6.79689 0.684151 7.423 0.913318 7.89771 1.44531C8.37241 1.96912 8.70388 2.79985 8.89213 3.9375C9.25224 6.28646 9.52233 7.81287 9.70239 8.51674C10.1525 10.5547 10.6436 11.5737 11.1756 11.5737C11.593 11.5737 12.2232 10.9148 13.0662 9.5971C13.8929 8.27939 14.3389 7.27269 14.4044 6.57701C14.5108 5.43936 14.0647 4.87053 13.0662 4.87053C12.5997 4.87053 12.1046 4.97693 11.5807 5.18973C12.5629 1.97321 14.4412 0.409969 17.2158 0.499999C19.2701 0.565476 20.2359 1.89955 20.1131 4.50223Z" fill="#035755"/>
</svg>
