<svg width="23" height="16" viewBox="0 0 23 16" fill="none" xmlns="http://www.w3.org/2000/svg">
<path d="M9.58121 10.9911L15.5232 7.92187L9.58121 4.81585V10.9911ZM11.8524 0.408482C13.2274 0.408482 14.5533 0.428943 15.8301 0.469865C17.1151 0.502603 18.0563 0.539434 18.6538 0.580357L19.55 0.629464C19.5581 0.629464 19.6277 0.637648 19.7587 0.654017C19.8896 0.662202 19.9837 0.674479 20.041 0.690847C20.0983 0.699032 20.1924 0.715401 20.3234 0.739954C20.4625 0.764508 20.5812 0.797246 20.6794 0.838169C20.7776 0.879092 20.8922 0.932291 21.0232 0.997767C21.1541 1.06324 21.281 1.14509 21.4038 1.2433C21.5265 1.33333 21.6452 1.43973 21.7598 1.5625C21.8089 1.61161 21.8703 1.68936 21.9439 1.79576C22.0258 1.89397 22.1445 2.13132 22.3 2.50781C22.4637 2.8843 22.5741 3.29762 22.6314 3.74777C22.6969 4.27158 22.746 4.83222 22.7788 5.42969C22.8197 6.01897 22.8442 6.4814 22.8524 6.81696V7.30804V8.97768C22.8606 10.1644 22.7869 11.3512 22.6314 12.5379C22.5741 12.9881 22.4718 13.3973 22.3245 13.7656C22.1772 14.1257 22.0462 14.3754 21.9317 14.5145L21.7598 14.7232C21.6452 14.846 21.5265 14.9565 21.4038 15.0547C21.281 15.1447 21.1541 15.2225 21.0232 15.2879C20.8922 15.3452 20.7776 15.3943 20.6794 15.4353C20.5812 15.4762 20.4625 15.5089 20.3234 15.5335C20.1924 15.558 20.0942 15.5785 20.0288 15.5949C19.9715 15.6031 19.8773 15.6153 19.7464 15.6317C19.6236 15.6399 19.5581 15.644 19.55 15.644C17.4956 15.7995 14.9298 15.8772 11.8524 15.8772C10.1582 15.8609 8.68501 15.8363 7.43277 15.8036C6.18873 15.7626 5.37027 15.7299 4.97742 15.7054L4.37585 15.6562L3.93389 15.6071C3.63925 15.5662 3.41417 15.5253 3.25867 15.4844C3.11135 15.4435 2.90264 15.3575 2.63255 15.2266C2.37065 15.0956 2.14148 14.9278 1.94505 14.7232C1.89594 14.6741 1.83047 14.6004 1.74862 14.5022C1.67496 14.3958 1.55629 14.1544 1.3926 13.7779C1.23709 13.4014 1.13069 12.9881 1.0734 12.5379C1.00792 12.0141 0.954724 11.4576 0.913801 10.8683C0.881063 10.2708 0.860602 9.80432 0.852417 9.46875V8.97768V7.30804C0.844232 6.12128 0.917893 4.93452 1.0734 3.74777C1.13069 3.29762 1.233 2.89248 1.38032 2.53237C1.52764 2.16406 1.65859 1.91034 1.77318 1.7712L1.94505 1.5625C2.05963 1.43973 2.17831 1.33333 2.30108 1.2433C2.42385 1.14509 2.55071 1.06324 2.68166 0.997767C2.81261 0.932291 2.92719 0.879092 3.02541 0.838169C3.12362 0.797246 3.23821 0.764508 3.36916 0.739954C3.5083 0.715401 3.60651 0.699032 3.6638 0.690847C3.72109 0.674479 3.81521 0.662202 3.94617 0.654017C4.07712 0.637648 4.14669 0.629464 4.15487 0.629464C6.20919 0.482143 8.77504 0.408482 11.8524 0.408482Z" fill="#F44A45"/>
</svg>
